<mxfile host="app.diagrams.net" modified="2023-10-30T21:54:36.657Z" agent="Mozilla/5.0 (X11; Linux x86_64) AppleWebKit/537.36 (KHTML, like Gecko) Chrome/118.0.0.0 Safari/537.36" etag="cFAOpr1dy3R4zjSZSCuR" version="22.0.8" type="github">
  <diagram name="Pagina-1" id="US5Lr-QpK2nsFxnEewYP">
    <mxGraphModel dx="893" dy="554" grid="1" gridSize="10" guides="1" tooltips="1" connect="1" arrows="1" fold="1" page="1" pageScale="1" pageWidth="827" pageHeight="1169" math="0" shadow="0">
      <root>
        <mxCell id="0" />
        <mxCell id="1" parent="0" />
        <mxCell id="JDNGp-zcv62T5LcZ8lAI-11" style="rounded=0;orthogonalLoop=1;jettySize=auto;html=1;exitX=1;exitY=0;exitDx=0;exitDy=0;entryX=0;entryY=1;entryDx=0;entryDy=0;strokeColor=#FFFFFF;" edge="1" parent="1" source="JDNGp-zcv62T5LcZ8lAI-4" target="JDNGp-zcv62T5LcZ8lAI-10">
          <mxGeometry relative="1" as="geometry" />
        </mxCell>
        <mxCell id="JDNGp-zcv62T5LcZ8lAI-12" style="rounded=0;orthogonalLoop=1;jettySize=auto;html=1;exitX=0;exitY=0;exitDx=0;exitDy=0;entryX=1;entryY=1;entryDx=0;entryDy=0;strokeColor=#FFFFFF;" edge="1" parent="1" source="JDNGp-zcv62T5LcZ8lAI-4" target="JDNGp-zcv62T5LcZ8lAI-7">
          <mxGeometry relative="1" as="geometry" />
        </mxCell>
        <mxCell id="JDNGp-zcv62T5LcZ8lAI-16" style="edgeStyle=none;rounded=0;orthogonalLoop=1;jettySize=auto;html=1;exitX=0.5;exitY=0;exitDx=0;exitDy=0;entryX=0.5;entryY=1;entryDx=0;entryDy=0;strokeColor=#FFFFFF;" edge="1" parent="1" source="JDNGp-zcv62T5LcZ8lAI-4" target="JDNGp-zcv62T5LcZ8lAI-8">
          <mxGeometry relative="1" as="geometry" />
        </mxCell>
        <mxCell id="JDNGp-zcv62T5LcZ8lAI-4" value="" style="ellipse;whiteSpace=wrap;html=1;aspect=fixed;fillColor=#000000;strokeColor=#FFFFFF;" vertex="1" parent="1">
          <mxGeometry x="300" y="380" width="30" height="30" as="geometry" />
        </mxCell>
        <mxCell id="JDNGp-zcv62T5LcZ8lAI-15" style="edgeStyle=none;rounded=0;orthogonalLoop=1;jettySize=auto;html=1;exitX=1;exitY=0;exitDx=0;exitDy=0;entryX=0;entryY=1;entryDx=0;entryDy=0;strokeColor=#FFFFFF;" edge="1" parent="1" source="JDNGp-zcv62T5LcZ8lAI-7" target="JDNGp-zcv62T5LcZ8lAI-8">
          <mxGeometry relative="1" as="geometry" />
        </mxCell>
        <mxCell id="JDNGp-zcv62T5LcZ8lAI-7" value="" style="ellipse;whiteSpace=wrap;html=1;aspect=fixed;fillColor=#000000;strokeColor=#FFFFFF;" vertex="1" parent="1">
          <mxGeometry x="250" y="300" width="30" height="30" as="geometry" />
        </mxCell>
        <mxCell id="JDNGp-zcv62T5LcZ8lAI-17" style="edgeStyle=none;rounded=0;orthogonalLoop=1;jettySize=auto;html=1;exitX=1;exitY=1;exitDx=0;exitDy=0;entryX=0;entryY=0;entryDx=0;entryDy=0;strokeColor=#FFFFFF;" edge="1" parent="1" source="JDNGp-zcv62T5LcZ8lAI-8" target="JDNGp-zcv62T5LcZ8lAI-9">
          <mxGeometry relative="1" as="geometry" />
        </mxCell>
        <mxCell id="JDNGp-zcv62T5LcZ8lAI-8" value="" style="ellipse;whiteSpace=wrap;html=1;aspect=fixed;fillColor=#000000;strokeColor=#FFFFFF;" vertex="1" parent="1">
          <mxGeometry x="300" y="230" width="30" height="30" as="geometry" />
        </mxCell>
        <mxCell id="JDNGp-zcv62T5LcZ8lAI-9" value="" style="ellipse;whiteSpace=wrap;html=1;aspect=fixed;fillColor=#000000;strokeColor=#FFFFFF;" vertex="1" parent="1">
          <mxGeometry x="360" y="290" width="30" height="30" as="geometry" />
        </mxCell>
        <mxCell id="JDNGp-zcv62T5LcZ8lAI-29" style="edgeStyle=none;rounded=0;orthogonalLoop=1;jettySize=auto;html=1;exitX=1;exitY=0;exitDx=0;exitDy=0;entryX=0.5;entryY=1;entryDx=0;entryDy=0;strokeColor=#FFFFFF;" edge="1" parent="1" source="JDNGp-zcv62T5LcZ8lAI-10" target="JDNGp-zcv62T5LcZ8lAI-9">
          <mxGeometry relative="1" as="geometry" />
        </mxCell>
        <mxCell id="JDNGp-zcv62T5LcZ8lAI-10" value="" style="ellipse;whiteSpace=wrap;html=1;aspect=fixed;fillColor=#000000;strokeColor=#FFFFFF;" vertex="1" parent="1">
          <mxGeometry x="340" y="340" width="30" height="30" as="geometry" />
        </mxCell>
        <mxCell id="JDNGp-zcv62T5LcZ8lAI-14" style="edgeStyle=none;rounded=0;orthogonalLoop=1;jettySize=auto;html=1;exitX=0.5;exitY=0;exitDx=0;exitDy=0;entryX=0.66;entryY=0.994;entryDx=0;entryDy=0;entryPerimeter=0;strokeColor=#FFFFFF;" edge="1" parent="1" source="JDNGp-zcv62T5LcZ8lAI-10" target="JDNGp-zcv62T5LcZ8lAI-8">
          <mxGeometry relative="1" as="geometry" />
        </mxCell>
        <mxCell id="JDNGp-zcv62T5LcZ8lAI-18" style="rounded=0;orthogonalLoop=1;jettySize=auto;html=1;exitX=1;exitY=0;exitDx=0;exitDy=0;entryX=0;entryY=1;entryDx=0;entryDy=0;strokeColor=#FFFFFF;" edge="1" parent="1" source="JDNGp-zcv62T5LcZ8lAI-21" target="JDNGp-zcv62T5LcZ8lAI-27">
          <mxGeometry relative="1" as="geometry" />
        </mxCell>
        <mxCell id="JDNGp-zcv62T5LcZ8lAI-19" style="rounded=0;orthogonalLoop=1;jettySize=auto;html=1;exitX=0;exitY=0;exitDx=0;exitDy=0;entryX=1;entryY=1;entryDx=0;entryDy=0;strokeColor=#FFFFFF;" edge="1" parent="1" source="JDNGp-zcv62T5LcZ8lAI-21" target="JDNGp-zcv62T5LcZ8lAI-23">
          <mxGeometry relative="1" as="geometry" />
        </mxCell>
        <mxCell id="JDNGp-zcv62T5LcZ8lAI-20" style="edgeStyle=none;rounded=0;orthogonalLoop=1;jettySize=auto;html=1;exitX=0.5;exitY=0;exitDx=0;exitDy=0;entryX=0.5;entryY=1;entryDx=0;entryDy=0;strokeColor=#FFFFFF;" edge="1" parent="1" source="JDNGp-zcv62T5LcZ8lAI-21" target="JDNGp-zcv62T5LcZ8lAI-25">
          <mxGeometry relative="1" as="geometry" />
        </mxCell>
        <mxCell id="JDNGp-zcv62T5LcZ8lAI-21" value="" style="ellipse;whiteSpace=wrap;html=1;aspect=fixed;fillColor=#000000;strokeColor=#FFFFFF;" vertex="1" parent="1">
          <mxGeometry x="170" y="610" width="30" height="30" as="geometry" />
        </mxCell>
        <mxCell id="JDNGp-zcv62T5LcZ8lAI-22" style="edgeStyle=none;rounded=0;orthogonalLoop=1;jettySize=auto;html=1;exitX=1;exitY=0;exitDx=0;exitDy=0;entryX=0;entryY=1;entryDx=0;entryDy=0;strokeColor=#FFFFFF;" edge="1" parent="1" source="JDNGp-zcv62T5LcZ8lAI-23" target="JDNGp-zcv62T5LcZ8lAI-25">
          <mxGeometry relative="1" as="geometry" />
        </mxCell>
        <mxCell id="JDNGp-zcv62T5LcZ8lAI-23" value="" style="ellipse;whiteSpace=wrap;html=1;aspect=fixed;fillColor=#000000;strokeColor=#FFFFFF;" vertex="1" parent="1">
          <mxGeometry x="90" y="540" width="30" height="30" as="geometry" />
        </mxCell>
        <mxCell id="JDNGp-zcv62T5LcZ8lAI-24" style="edgeStyle=none;rounded=0;orthogonalLoop=1;jettySize=auto;html=1;exitX=1;exitY=1;exitDx=0;exitDy=0;entryX=0;entryY=0;entryDx=0;entryDy=0;strokeColor=#FFFFFF;" edge="1" parent="1" source="JDNGp-zcv62T5LcZ8lAI-25" target="JDNGp-zcv62T5LcZ8lAI-26">
          <mxGeometry relative="1" as="geometry" />
        </mxCell>
        <mxCell id="JDNGp-zcv62T5LcZ8lAI-67" style="edgeStyle=none;rounded=0;orthogonalLoop=1;jettySize=auto;html=1;exitX=1;exitY=0;exitDx=0;exitDy=0;entryX=0;entryY=1;entryDx=0;entryDy=0;strokeColor=#FFFFFF;" edge="1" parent="1" source="JDNGp-zcv62T5LcZ8lAI-25" target="JDNGp-zcv62T5LcZ8lAI-7">
          <mxGeometry relative="1" as="geometry" />
        </mxCell>
        <mxCell id="JDNGp-zcv62T5LcZ8lAI-25" value="" style="ellipse;whiteSpace=wrap;html=1;aspect=fixed;fillColor=#000000;strokeColor=#FFFFFF;" vertex="1" parent="1">
          <mxGeometry x="170" y="460" width="30" height="30" as="geometry" />
        </mxCell>
        <mxCell id="JDNGp-zcv62T5LcZ8lAI-26" value="" style="ellipse;whiteSpace=wrap;html=1;aspect=fixed;fillColor=#000000;strokeColor=#FFFFFF;" vertex="1" parent="1">
          <mxGeometry x="230" y="520" width="30" height="30" as="geometry" />
        </mxCell>
        <mxCell id="JDNGp-zcv62T5LcZ8lAI-27" value="" style="ellipse;whiteSpace=wrap;html=1;aspect=fixed;fillColor=#000000;strokeColor=#FFFFFF;" vertex="1" parent="1">
          <mxGeometry x="230" y="580" width="30" height="30" as="geometry" />
        </mxCell>
        <mxCell id="JDNGp-zcv62T5LcZ8lAI-28" style="edgeStyle=none;rounded=0;orthogonalLoop=1;jettySize=auto;html=1;exitX=0.5;exitY=0;exitDx=0;exitDy=0;entryX=0.66;entryY=0.994;entryDx=0;entryDy=0;entryPerimeter=0;strokeColor=#FFFFFF;" edge="1" parent="1" source="JDNGp-zcv62T5LcZ8lAI-27" target="JDNGp-zcv62T5LcZ8lAI-25">
          <mxGeometry relative="1" as="geometry" />
        </mxCell>
        <mxCell id="JDNGp-zcv62T5LcZ8lAI-31" style="edgeStyle=none;rounded=0;orthogonalLoop=1;jettySize=auto;html=1;exitX=0.5;exitY=0;exitDx=0;exitDy=0;strokeColor=#FFFFFF;" edge="1" parent="1" source="JDNGp-zcv62T5LcZ8lAI-30" target="JDNGp-zcv62T5LcZ8lAI-25">
          <mxGeometry relative="1" as="geometry" />
        </mxCell>
        <mxCell id="JDNGp-zcv62T5LcZ8lAI-30" value="" style="ellipse;whiteSpace=wrap;html=1;aspect=fixed;fillColor=#000000;strokeColor=#FFFFFF;" vertex="1" parent="1">
          <mxGeometry x="160" y="530" width="30" height="30" as="geometry" />
        </mxCell>
        <mxCell id="JDNGp-zcv62T5LcZ8lAI-32" style="rounded=0;orthogonalLoop=1;jettySize=auto;html=1;exitX=1;exitY=0;exitDx=0;exitDy=0;entryX=0;entryY=1;entryDx=0;entryDy=0;strokeColor=#FFFFFF;" edge="1" parent="1" source="JDNGp-zcv62T5LcZ8lAI-35" target="JDNGp-zcv62T5LcZ8lAI-41">
          <mxGeometry relative="1" as="geometry" />
        </mxCell>
        <mxCell id="JDNGp-zcv62T5LcZ8lAI-33" style="rounded=0;orthogonalLoop=1;jettySize=auto;html=1;exitX=0;exitY=0;exitDx=0;exitDy=0;entryX=1;entryY=1;entryDx=0;entryDy=0;strokeColor=#FFFFFF;" edge="1" parent="1" source="JDNGp-zcv62T5LcZ8lAI-35" target="JDNGp-zcv62T5LcZ8lAI-37">
          <mxGeometry relative="1" as="geometry" />
        </mxCell>
        <mxCell id="JDNGp-zcv62T5LcZ8lAI-34" style="edgeStyle=none;rounded=0;orthogonalLoop=1;jettySize=auto;html=1;exitX=0.5;exitY=0;exitDx=0;exitDy=0;entryX=0.5;entryY=1;entryDx=0;entryDy=0;strokeColor=#FFFFFF;" edge="1" parent="1" source="JDNGp-zcv62T5LcZ8lAI-35" target="JDNGp-zcv62T5LcZ8lAI-39">
          <mxGeometry relative="1" as="geometry" />
        </mxCell>
        <mxCell id="JDNGp-zcv62T5LcZ8lAI-35" value="" style="ellipse;whiteSpace=wrap;html=1;aspect=fixed;fillColor=#000000;strokeColor=#FFFFFF;" vertex="1" parent="1">
          <mxGeometry x="560" y="440" width="30" height="30" as="geometry" />
        </mxCell>
        <mxCell id="JDNGp-zcv62T5LcZ8lAI-36" style="edgeStyle=none;rounded=0;orthogonalLoop=1;jettySize=auto;html=1;exitX=1;exitY=0;exitDx=0;exitDy=0;entryX=0;entryY=1;entryDx=0;entryDy=0;strokeColor=#FFFFFF;" edge="1" parent="1" source="JDNGp-zcv62T5LcZ8lAI-37" target="JDNGp-zcv62T5LcZ8lAI-39">
          <mxGeometry relative="1" as="geometry" />
        </mxCell>
        <mxCell id="JDNGp-zcv62T5LcZ8lAI-37" value="" style="ellipse;whiteSpace=wrap;html=1;aspect=fixed;fillColor=#000000;strokeColor=#FFFFFF;" vertex="1" parent="1">
          <mxGeometry x="500" y="380" width="30" height="30" as="geometry" />
        </mxCell>
        <mxCell id="JDNGp-zcv62T5LcZ8lAI-38" style="edgeStyle=none;rounded=0;orthogonalLoop=1;jettySize=auto;html=1;exitX=1;exitY=1;exitDx=0;exitDy=0;entryX=0;entryY=0;entryDx=0;entryDy=0;strokeColor=#FFFFFF;" edge="1" parent="1" source="JDNGp-zcv62T5LcZ8lAI-39" target="JDNGp-zcv62T5LcZ8lAI-40">
          <mxGeometry relative="1" as="geometry" />
        </mxCell>
        <mxCell id="JDNGp-zcv62T5LcZ8lAI-39" value="" style="ellipse;whiteSpace=wrap;html=1;aspect=fixed;fillColor=#000000;strokeColor=#FFFFFF;" vertex="1" parent="1">
          <mxGeometry x="550" y="305" width="30" height="30" as="geometry" />
        </mxCell>
        <mxCell id="JDNGp-zcv62T5LcZ8lAI-40" value="" style="ellipse;whiteSpace=wrap;html=1;aspect=fixed;fillColor=#000000;strokeColor=#FFFFFF;" vertex="1" parent="1">
          <mxGeometry x="610" y="340" width="30" height="30" as="geometry" />
        </mxCell>
        <mxCell id="JDNGp-zcv62T5LcZ8lAI-41" value="" style="ellipse;whiteSpace=wrap;html=1;aspect=fixed;fillColor=#000000;strokeColor=#FFFFFF;" vertex="1" parent="1">
          <mxGeometry x="610" y="425" width="30" height="30" as="geometry" />
        </mxCell>
        <mxCell id="JDNGp-zcv62T5LcZ8lAI-42" style="edgeStyle=none;rounded=0;orthogonalLoop=1;jettySize=auto;html=1;exitX=0.5;exitY=0;exitDx=0;exitDy=0;entryX=0.66;entryY=0.994;entryDx=0;entryDy=0;entryPerimeter=0;strokeColor=#FFFFFF;" edge="1" parent="1" source="JDNGp-zcv62T5LcZ8lAI-41" target="JDNGp-zcv62T5LcZ8lAI-39">
          <mxGeometry relative="1" as="geometry" />
        </mxCell>
        <mxCell id="JDNGp-zcv62T5LcZ8lAI-43" style="edgeStyle=none;rounded=0;orthogonalLoop=1;jettySize=auto;html=1;exitX=0.5;exitY=0;exitDx=0;exitDy=0;strokeColor=#FFFFFF;" edge="1" parent="1" source="JDNGp-zcv62T5LcZ8lAI-44" target="JDNGp-zcv62T5LcZ8lAI-39">
          <mxGeometry relative="1" as="geometry" />
        </mxCell>
        <mxCell id="JDNGp-zcv62T5LcZ8lAI-44" value="" style="ellipse;whiteSpace=wrap;html=1;aspect=fixed;fillColor=#000000;strokeColor=#FFFFFF;" vertex="1" parent="1">
          <mxGeometry x="480" y="290" width="30" height="30" as="geometry" />
        </mxCell>
        <mxCell id="JDNGp-zcv62T5LcZ8lAI-45" style="rounded=0;orthogonalLoop=1;jettySize=auto;html=1;exitX=1;exitY=0;exitDx=0;exitDy=0;entryX=0;entryY=1;entryDx=0;entryDy=0;strokeColor=#FFFFFF;" edge="1" parent="1" source="JDNGp-zcv62T5LcZ8lAI-48" target="JDNGp-zcv62T5LcZ8lAI-54">
          <mxGeometry relative="1" as="geometry" />
        </mxCell>
        <mxCell id="JDNGp-zcv62T5LcZ8lAI-46" style="rounded=0;orthogonalLoop=1;jettySize=auto;html=1;exitX=0;exitY=0;exitDx=0;exitDy=0;entryX=1;entryY=1;entryDx=0;entryDy=0;strokeColor=#FFFFFF;" edge="1" parent="1" source="JDNGp-zcv62T5LcZ8lAI-48" target="JDNGp-zcv62T5LcZ8lAI-50">
          <mxGeometry relative="1" as="geometry" />
        </mxCell>
        <mxCell id="JDNGp-zcv62T5LcZ8lAI-47" style="edgeStyle=none;rounded=0;orthogonalLoop=1;jettySize=auto;html=1;exitX=0.5;exitY=0;exitDx=0;exitDy=0;entryX=0.5;entryY=1;entryDx=0;entryDy=0;strokeColor=#FFFFFF;" edge="1" parent="1" source="JDNGp-zcv62T5LcZ8lAI-48" target="JDNGp-zcv62T5LcZ8lAI-52">
          <mxGeometry relative="1" as="geometry" />
        </mxCell>
        <mxCell id="JDNGp-zcv62T5LcZ8lAI-48" value="" style="ellipse;whiteSpace=wrap;html=1;aspect=fixed;fillColor=#000000;strokeColor=#FFFFFF;" vertex="1" parent="1">
          <mxGeometry x="440" y="690" width="30" height="30" as="geometry" />
        </mxCell>
        <mxCell id="JDNGp-zcv62T5LcZ8lAI-49" style="edgeStyle=none;rounded=0;orthogonalLoop=1;jettySize=auto;html=1;exitX=1;exitY=0;exitDx=0;exitDy=0;entryX=0;entryY=1;entryDx=0;entryDy=0;strokeColor=#FFFFFF;" edge="1" parent="1" source="JDNGp-zcv62T5LcZ8lAI-50" target="JDNGp-zcv62T5LcZ8lAI-52">
          <mxGeometry relative="1" as="geometry" />
        </mxCell>
        <mxCell id="JDNGp-zcv62T5LcZ8lAI-66" style="edgeStyle=none;rounded=0;orthogonalLoop=1;jettySize=auto;html=1;exitX=0;exitY=0.5;exitDx=0;exitDy=0;strokeColor=#FFFFFF;" edge="1" parent="1" source="JDNGp-zcv62T5LcZ8lAI-50" target="JDNGp-zcv62T5LcZ8lAI-27">
          <mxGeometry relative="1" as="geometry" />
        </mxCell>
        <mxCell id="JDNGp-zcv62T5LcZ8lAI-50" value="" style="ellipse;whiteSpace=wrap;html=1;aspect=fixed;fillColor=#000000;strokeColor=#FFFFFF;" vertex="1" parent="1">
          <mxGeometry x="380" y="630" width="30" height="30" as="geometry" />
        </mxCell>
        <mxCell id="JDNGp-zcv62T5LcZ8lAI-51" style="edgeStyle=none;rounded=0;orthogonalLoop=1;jettySize=auto;html=1;exitX=1;exitY=1;exitDx=0;exitDy=0;entryX=0;entryY=0;entryDx=0;entryDy=0;strokeColor=#FFFFFF;" edge="1" parent="1" source="JDNGp-zcv62T5LcZ8lAI-52" target="JDNGp-zcv62T5LcZ8lAI-53">
          <mxGeometry relative="1" as="geometry" />
        </mxCell>
        <mxCell id="JDNGp-zcv62T5LcZ8lAI-52" value="" style="ellipse;whiteSpace=wrap;html=1;aspect=fixed;fillColor=#000000;strokeColor=#FFFFFF;" vertex="1" parent="1">
          <mxGeometry x="430" y="555" width="30" height="30" as="geometry" />
        </mxCell>
        <mxCell id="JDNGp-zcv62T5LcZ8lAI-53" value="" style="ellipse;whiteSpace=wrap;html=1;aspect=fixed;fillColor=#000000;strokeColor=#FFFFFF;" vertex="1" parent="1">
          <mxGeometry x="490" y="590" width="30" height="30" as="geometry" />
        </mxCell>
        <mxCell id="JDNGp-zcv62T5LcZ8lAI-54" value="" style="ellipse;whiteSpace=wrap;html=1;aspect=fixed;fillColor=#000000;strokeColor=#FFFFFF;" vertex="1" parent="1">
          <mxGeometry x="490" y="675" width="30" height="30" as="geometry" />
        </mxCell>
        <mxCell id="JDNGp-zcv62T5LcZ8lAI-55" style="edgeStyle=none;rounded=0;orthogonalLoop=1;jettySize=auto;html=1;exitX=0.5;exitY=0;exitDx=0;exitDy=0;entryX=0.66;entryY=0.994;entryDx=0;entryDy=0;entryPerimeter=0;strokeColor=#FFFFFF;" edge="1" parent="1" source="JDNGp-zcv62T5LcZ8lAI-54" target="JDNGp-zcv62T5LcZ8lAI-52">
          <mxGeometry relative="1" as="geometry" />
        </mxCell>
        <mxCell id="JDNGp-zcv62T5LcZ8lAI-56" style="edgeStyle=none;rounded=0;orthogonalLoop=1;jettySize=auto;html=1;exitX=0.5;exitY=0;exitDx=0;exitDy=0;strokeColor=#FFFFFF;" edge="1" parent="1" source="JDNGp-zcv62T5LcZ8lAI-57" target="JDNGp-zcv62T5LcZ8lAI-52">
          <mxGeometry relative="1" as="geometry" />
        </mxCell>
        <mxCell id="JDNGp-zcv62T5LcZ8lAI-62" style="edgeStyle=none;rounded=0;orthogonalLoop=1;jettySize=auto;html=1;exitX=1;exitY=0;exitDx=0;exitDy=0;strokeColor=#FFFFFF;" edge="1" parent="1" source="JDNGp-zcv62T5LcZ8lAI-57" target="JDNGp-zcv62T5LcZ8lAI-59">
          <mxGeometry relative="1" as="geometry" />
        </mxCell>
        <mxCell id="JDNGp-zcv62T5LcZ8lAI-64" style="edgeStyle=none;rounded=0;orthogonalLoop=1;jettySize=auto;html=1;exitX=0.5;exitY=0;exitDx=0;exitDy=0;strokeColor=#FFFFFF;" edge="1" parent="1" source="JDNGp-zcv62T5LcZ8lAI-57" target="JDNGp-zcv62T5LcZ8lAI-4">
          <mxGeometry relative="1" as="geometry" />
        </mxCell>
        <mxCell id="JDNGp-zcv62T5LcZ8lAI-57" value="" style="ellipse;whiteSpace=wrap;html=1;aspect=fixed;fillColor=#000000;strokeColor=#FFFFFF;" vertex="1" parent="1">
          <mxGeometry x="360" y="540" width="30" height="30" as="geometry" />
        </mxCell>
        <mxCell id="JDNGp-zcv62T5LcZ8lAI-71" style="edgeStyle=none;rounded=0;orthogonalLoop=1;jettySize=auto;html=1;exitX=0;exitY=0;exitDx=0;exitDy=0;strokeColor=#FFFFFF;" edge="1" parent="1" source="JDNGp-zcv62T5LcZ8lAI-58" target="JDNGp-zcv62T5LcZ8lAI-53">
          <mxGeometry relative="1" as="geometry" />
        </mxCell>
        <mxCell id="JDNGp-zcv62T5LcZ8lAI-58" value="" style="ellipse;whiteSpace=wrap;html=1;aspect=fixed;fillColor=#000000;strokeColor=#FFFFFF;" vertex="1" parent="1">
          <mxGeometry x="570" y="645" width="30" height="30" as="geometry" />
        </mxCell>
        <mxCell id="JDNGp-zcv62T5LcZ8lAI-60" style="edgeStyle=none;rounded=0;orthogonalLoop=1;jettySize=auto;html=1;exitX=0;exitY=1;exitDx=0;exitDy=0;strokeColor=#FFFFFF;" edge="1" parent="1" source="JDNGp-zcv62T5LcZ8lAI-59" target="JDNGp-zcv62T5LcZ8lAI-52">
          <mxGeometry relative="1" as="geometry" />
        </mxCell>
        <mxCell id="JDNGp-zcv62T5LcZ8lAI-59" value="" style="ellipse;whiteSpace=wrap;html=1;aspect=fixed;fillColor=#000000;strokeColor=#FFFFFF;" vertex="1" parent="1">
          <mxGeometry x="470" y="510" width="30" height="30" as="geometry" />
        </mxCell>
        <mxCell id="JDNGp-zcv62T5LcZ8lAI-61" style="edgeStyle=none;rounded=0;orthogonalLoop=1;jettySize=auto;html=1;exitX=0.5;exitY=1;exitDx=0;exitDy=0;entryX=0.3;entryY=-0.013;entryDx=0;entryDy=0;entryPerimeter=0;strokeColor=#FFFFFF;" edge="1" parent="1" source="JDNGp-zcv62T5LcZ8lAI-59" target="JDNGp-zcv62T5LcZ8lAI-53">
          <mxGeometry relative="1" as="geometry" />
        </mxCell>
        <mxCell id="JDNGp-zcv62T5LcZ8lAI-63" style="edgeStyle=none;rounded=0;orthogonalLoop=1;jettySize=auto;html=1;exitX=1;exitY=0;exitDx=0;exitDy=0;entryX=0.317;entryY=0.992;entryDx=0;entryDy=0;entryPerimeter=0;strokeColor=#FFFFFF;" edge="1" parent="1" source="JDNGp-zcv62T5LcZ8lAI-59" target="JDNGp-zcv62T5LcZ8lAI-37">
          <mxGeometry relative="1" as="geometry" />
        </mxCell>
        <mxCell id="JDNGp-zcv62T5LcZ8lAI-65" style="edgeStyle=none;rounded=0;orthogonalLoop=1;jettySize=auto;html=1;exitX=0.5;exitY=0;exitDx=0;exitDy=0;entryX=0.763;entryY=1.036;entryDx=0;entryDy=0;entryPerimeter=0;strokeColor=#FFFFFF;" edge="1" parent="1" source="JDNGp-zcv62T5LcZ8lAI-52" target="JDNGp-zcv62T5LcZ8lAI-9">
          <mxGeometry relative="1" as="geometry" />
        </mxCell>
        <mxCell id="JDNGp-zcv62T5LcZ8lAI-68" value="" style="ellipse;whiteSpace=wrap;html=1;aspect=fixed;fillColor=none;strokeColor=#80FF00;" vertex="1" parent="1">
          <mxGeometry x="72.5" y="455" width="205" height="205" as="geometry" />
        </mxCell>
        <mxCell id="JDNGp-zcv62T5LcZ8lAI-69" value="" style="ellipse;whiteSpace=wrap;html=1;aspect=fixed;fillColor=none;strokeColor=#007FFF;" vertex="1" parent="1">
          <mxGeometry x="212.5" y="220" width="205" height="205" as="geometry" />
        </mxCell>
        <mxCell id="JDNGp-zcv62T5LcZ8lAI-70" value="" style="ellipse;whiteSpace=wrap;html=1;aspect=fixed;fillColor=none;strokeColor=#FF99CC;" vertex="1" parent="1">
          <mxGeometry x="435" y="250" width="240" height="240" as="geometry" />
        </mxCell>
        <mxCell id="JDNGp-zcv62T5LcZ8lAI-72" style="edgeStyle=none;rounded=0;orthogonalLoop=1;jettySize=auto;html=1;exitX=1;exitY=0.5;exitDx=0;exitDy=0;entryX=0.071;entryY=0.647;entryDx=0;entryDy=0;entryPerimeter=0;strokeColor=#FFFFFF;" edge="1" parent="1" source="JDNGp-zcv62T5LcZ8lAI-54" target="JDNGp-zcv62T5LcZ8lAI-58">
          <mxGeometry relative="1" as="geometry" />
        </mxCell>
        <mxCell id="JDNGp-zcv62T5LcZ8lAI-73" value="" style="ellipse;whiteSpace=wrap;html=1;aspect=fixed;fillColor=none;strokeColor=#FF6666;" vertex="1" parent="1">
          <mxGeometry x="320" y="490" width="290" height="290" as="geometry" />
        </mxCell>
      </root>
    </mxGraphModel>
  </diagram>
</mxfile>
